 <svg  version="1.0" xmlns="http://www.w3.org/2000/svg"  width="300.000000pt" height="303.000000pt" viewBox="0 0 300.000000 303.000000"  preserveAspectRatio="xMidYMid meet">  <g transform="translate(0.000000,303.000000) scale(0.100000,-0.100000)" fill="#8c51fd" stroke="none"> <path d="M1333 1782 l-73 -76 0 -153 0 -153 351 0 350 0 36 -27 c49 -38 132 -40 182 -4 60 43 79 133 42 201 -20 38 -88 80 -129 80 -40 0 -110 -39 -129 -71 -12 -19 -25 -29 -42 -29 -24 0 -24 0 -18 82 l5 82 -75 -77 c-83 -84 -91 -111 -17 -53 26 20 51 36 56 36 4 0 8 -13 8 -28 0 -28 26 -62 47 -62 6 0 28 14 49 30 22 17 48 37 59 45 34 26 105 17 141 -20 27 -26 46 -79 40 -108 -8 -41 -34 -79 -48 -71 -7 4 -8 3 -4 -5 5 -7 -6 -17 -29 -27 -42 -17 -86 -9 -137 27 -32 23 -36 23 -363 27 -181 2 -336 5 -343 8 -11 3 -13 31 -10 134 l4 131 32 29 c17 16 41 31 52 35 19 6 20 2 20 -99 0 -82 3 -108 16 -120 8 -9 21 -16 27 -16 17 0 61 31 91 63 33 36 44 34 53 -10 l7 -38 7 30 c4 17 7 55 7 85 l1 55 -77 -82 c-43 -46 -85 -83 -95 -83 -15 0 -17 17 -19 154 l-3 155 -72 -77z"/> <path d="M1148 1633 l-78 -78 0 -155 0 -155 80 80 81 81 -3 152 -3 153 -77 -78z m42 -221 c-5 -2 -10 -8 -10 -14 0 -12 -53 -62 -69 -65 -7 -2 -11 32 -11 105 l0 107 48 45 47 45 3 -110 c2 -69 -1 -111 -8 -113z"/> <path d="M1671 1628 c-41 -43 -68 -78 -60 -78 8 0 29 13 45 29 44 43 65 43 78 1 l11 -35 3 43 c2 23 2 59 0 80 l-3 37 -74 -77z"/> <path d="M2286 1474 c-9 -8 -16 -19 -16 -24 0 -21 34 -40 74 -40 45 0 66 13 66 42 0 36 -93 53 -124 22z"/> <path d="M1226 1295 c-9 -10 -15 -24 -12 -32 3 -8 6 -17 6 -19 0 -2 130 -4 289 -4 302 0 321 3 305 44 -5 14 -32 16 -223 16 -119 0 -245 3 -282 6 -54 5 -68 4 -83 -11z m569 -25 c0 -13 -37 -15 -272 -15 -149 0 -274 3 -278 7 -24 24 19 28 278 26 234 -3 272 -5 272 -18z"/> <path d="M1906 1294 c-21 -20 -20 -30 3 -46 14 -10 63 -12 204 -10 180 3 186 4 193 24 13 42 -15 48 -207 48 -148 0 -180 -3 -193 -16z"/> </g> </svg> 