 <svg  version="1.0" xmlns="http://www.w3.org/2000/svg"  width="300.000000pt" height="143.000000pt" viewBox="0 0 300.000000 143.000000"  preserveAspectRatio="xMidYMid meet">  <g transform="translate(0.000000,143.000000) scale(0.050000,-0.050000)" fill="#605ec0" stroke="none"> <path d="M1584 2494 l-266 -284 -4 -575 -4 -575 1312 0 1312 0 88 -65 c452 -336 991 -73 953 465 -37 518 -642 699 -1001 300 -227 -252 -298 -149 -236 346 8 64 9 119 3 123 -19 11 -541 -550 -541 -580 0 -44 21 -36 135 51 273 207 305 214 305 70 0 -99 92 -230 161 -230 20 0 128 68 240 152 281 209 393 233 593 131 274 -141 348 -628 111 -733 -25 -11 -45 -31 -45 -46 0 -42 -161 -103 -273 -104 -84 0 -138 18 -305 103 l-202 103 -1235 19 c-788 12 -1244 26 -1260 39 -19 16 -25 140 -25 497 l0 476 95 84 c285 252 291 247 305 -227 17 -575 101 -624 479 -280 166 152 193 149 214 -30 26 -220 59 -125 85 246 22 316 31 307 -131 128 -157 -173 -350 -361 -443 -433 -108 -83 -112 -67 -134 555 l-20 558 -266 -284z"/> <path d="M885 1934 l-285 -286 0 -589 0 -588 302 299 301 300 -6 575 c-4 316 -11 575 -17 575 -5 0 -138 -129 -295 -286z m191 -422 c-4 -246 -14 -399 -27 -408 -12 -8 -42 -48 -67 -90 -61 -99 -223 -225 -245 -189 -9 14 -17 195 -17 403 l0 378 165 162 c91 89 172 157 181 150 9 -7 14 -190 10 -406z"/> <path d="M3034 2113 c-270 -293 -414 -459 -414 -475 0 -42 61 -11 178 90 187 162 265 154 294 -28 28 -173 48 -89 48 199 0 333 1 331 -106 214z"/> <path d="M5200 1366 c-209 -108 -62 -283 221 -262 143 10 204 55 195 143 -13 126 -263 198 -416 119z"/> <path d="M1223 707 c-59 -25 -100 -126 -76 -190 l23 -59 1060 6 c1159 7 1170 8 1170 115 0 93 -30 98 -712 110 -351 6 -818 15 -1038 20 -220 5 -412 4 -427 -2z m2033 -98 c66 -20 43 -57 -48 -73 -97 -17 -1674 -16 -1838 1 -140 15 -168 64 -50 87 89 17 1875 4 1936 -15z"/> <path d="M3813 700 c-131 -40 -169 -129 -84 -195 87 -69 1397 -75 1479 -6 55 45 34 145 -38 181 -69 35 -1253 52 -1357 20z"/> </g> </svg> 